# xmcd
#
# Track frame offsets:
# 151
# 18986
# 35891
# 52918
# 70205
# 82602
# 99583
# 118686
# 136587
# 154034
# 167897
# 184318
# 195386
# 208157
# 221228
# 241003
# 259314
# 275921
#
# Disc length: 3895 seconds
#
#
# Revision: 0
# Processed by: cddbd v1.5PL3 Copyright (c) Steve Scherf et al.
# Submitted via: FreeRIP 2.30 
#
DISCID=030f3512
DTITLE=咱的台灣歌-10
DYEAR=1900
DGENRE=
TTITLE0=博多夜船
TTITLE1=船頂的小姐
TTITLE2=爸爸是行船人
TTITLE3=媽媽我也真勇健
TTITLE4=素蘭小姐
TTITLE5=錢!什路用
TTITLE6=文旦小姐
TTITLE7=初戀五味
TTITLE8=草地人
TTITLE9=一顆流星
TTITLE10=夢遊仙公廟
TTITLE11=給我吻一下
TTITLE12=三輪車夫之戀
TTITLE13=春宵舞伴
TTITLE14=可憐酒家女
TTITLE15=探獄情怨
TTITLE16=流浪三兄妹
TTITLE17=上海歸來的莉露
EXTD=
EXTT0=
EXTT1=
EXTT2=
EXTT3=
EXTT4=
EXTT5=
EXTT6=
EXTT7=
EXTT8=
EXTT9=
EXTT10=
EXTT11=
EXTT12=
EXTT13=
EXTT14=
EXTT15=
EXTT16=
EXTT17=
PLAYORDER=
